<svg class="svg-icon" style="width: 1em; height: 1em;vertical-align: middle;fill: currentColor;overflow: hidden;" viewBox="0 0 1024 1024" version="1.1" xmlns="http://www.w3.org/2000/svg"><path d="M863.5 716.2V397.7h-703v318.5c0 12.9 5.5 24.5 14.2 32.7h674.5c8.8-8.2 14.3-19.8 14.3-32.7z" fill="#F2C05C" /><path d="M512 573.3m-175.6 0a175.6 175.6 0 1 0 351.2 0 175.6 175.6 0 1 0-351.2 0Z" fill="#078E7B" /><path d="M512 573.3m-165.1 0a165.1 165.1 0 1 0 330.2 0 165.1 165.1 0 1 0-330.2 0Z" fill="#0EAA97" /><path d="M512 573.3m-125.6 0a125.6 125.6 0 1 0 251.2 0 125.6 125.6 0 1 0-251.2 0Z" fill="#87ECF4" /><path d="M593.4 615.7c-1.2 0-2.4-0.2-3.5-0.6-5.2-2-7.8-7.7-5.8-12.9 3.3-8.8 5-18.2 5-27.7 0-30.1-17.5-57.9-44.7-70.8-5-2.4-7.1-8.3-4.7-13.3 2.4-5 8.3-7.1 13.3-4.7 34.1 16.2 56.1 51.1 56.1 88.8 0 12-2.1 23.7-6.3 34.8-1.5 3.9-5.3 6.4-9.4 6.4zM521 496.6c-0.4 0-0.8 0-1.2-0.1-3-0.3-6.1-0.5-9.1-0.5-5.5 0-10-4.5-10-10s4.5-10 10-10c3.8 0 7.7 0.2 11.4 0.7 5.5 0.6 9.4 5.6 8.8 11.1-0.6 5.1-4.9 8.8-9.9 8.8z" fill="#D6FBFC" /><path d="M565.1 265.5h-118c-8.6 0-16.6 4.7-20.7 12.4l-23.3 43.3h206l-23.3-43.3c-4.1-7.7-12.1-12.4-20.7-12.4z" fill="#078E7B" /><path d="M476.2 311.5H452c-3.3 0-6-2.7-6-6v-24.2c0-3.3 2.7-6 6-6h24.2c3.3 0 6 2.7 6 6v24.2c0.1 3.3-2.6 6-6 6z" fill="#09685A" /><path d="M785.5 313.5H649c-0.6 0-1 0.4-1 1v6.7h138.5v-6.7c0-0.6-0.4-1-1-1z" fill="#078E7B" /><path d="M768.5 271H665c-3 0-5.5 2.5-5.5 5.5v37H774v-37c0-3-2.5-5.5-5.5-5.5z" fill="#0EAA97" /><path d="M371 286.7H243c-3.9 0-7 3.1-7 7v27.5h142v-27.5c0-3.9-3.1-7-7-7z" fill="#078E7B" /><path d="M239.1 289.9h2.4v29.7h-2.4zM244.1 289.9h2.4v29.7h-2.4zM249.1 289.9h2.4v29.7h-2.4zM254 289.9h2.4v29.7H254zM259 289.9h2.4v29.7H259zM264 289.9h2.4v29.7H264zM268.9 289.9h2.4v29.7h-2.4zM273.9 289.9h2.4v29.7h-2.4zM278.9 289.9h2.4v29.7h-2.4zM283.8 289.9h2.4v29.7h-2.4zM288.8 289.9h2.4v29.7h-2.4zM293.8 289.9h2.4v29.7h-2.4zM298.8 289.9h2.4v29.7h-2.4zM303.7 289.9h2.4v29.7h-2.4zM308.7 289.9h2.4v29.7h-2.4zM313.7 289.9h2.4v29.7h-2.4zM318.6 289.9h2.4v29.7h-2.4zM323.6 289.9h2.4v29.7h-2.4zM328.6 289.9h2.4v29.7h-2.4zM333.5 289.9h2.4v29.7h-2.4zM338.5 289.9h2.4v29.7h-2.4zM343.5 289.9h2.4v29.7h-2.4zM348.5 289.9h2.4v29.7h-2.4zM353.4 289.9h2.4v29.7h-2.4zM358.4 289.9h2.4v29.7h-2.4zM363.4 289.9h2.4v29.7h-2.4zM368.3 289.9h2.4v29.7h-2.4zM373.3 289.9h2.4v29.7h-2.4z" fill="#09685A" /><path d="M863.5 365.8c0-24.7-20-44.7-44.7-44.7H205.2c-24.7 0-44.7 20-44.7 44.7v31.9h703v-31.9zM205.2 760.9h613.6c11.8 0 22.5-4.6 30.4-12H174.8c7.9 7.4 18.6 12 30.4 12z" fill="#0EAA97" /></svg>